<?xml version="1.0" encoding="UTF-8" standalone="no"?>
<!-- Generator: Adobe Illustrator 18.0.0, SVG Export Plug-In . SVG Version: 6.00 Build 0)  -->

<svg
   version="1.1"
   id="Capa_1"
   x="0px"
   y="0px"
   viewBox="0 0 32 30.395004"
   xml:space="preserve"
   sodipodi:docname="sister-brother_85909.svg"
   width="32"
   height="30.395004"
   inkscape:version="1.2.2 (732a01da63, 2022-12-09)"
   xmlns:inkscape="http://www.inkscape.org/namespaces/inkscape"
   xmlns:sodipodi="http://sodipodi.sourceforge.net/DTD/sodipodi-0.dtd"
   xmlns="http://www.w3.org/2000/svg"
   xmlns:svg="http://www.w3.org/2000/svg"><defs
   id="defs86" /><sodipodi:namedview
   id="namedview84"
   pagecolor="#505050"
   bordercolor="#eeeeee"
   borderopacity="1"
   inkscape:showpageshadow="0"
   inkscape:pageopacity="0"
   inkscape:pagecheckerboard="0"
   inkscape:deskcolor="#505050"
   showgrid="false"
   inkscape:zoom="1.7583225"
   inkscape:cx="228.627"
   inkscape:cy="206.16241"
   inkscape:window-width="1920"
   inkscape:window-height="991"
   inkscape:window-x="1699"
   inkscape:window-y="-9"
   inkscape:window-maximized="1"
   inkscape:current-layer="Capa_1" />
<g
   id="g51"
   style="fill:#ffffff"
   transform="matrix(0.06998292,0,0,0.06998292,3.2598471e-5,-0.80242416)">
	<circle
   cx="333.60001"
   cy="69.264999"
   r="47.409"
   id="circle45"
   style="fill:#ffffff" />
	<path
   d="M 454.413,260.338 381.45,135.101 c -3.495,-5.999 -10.592,-10.239 -15.94,-10.239 -1.283,0 -60.824,0 -62.106,0 -5.348,0 -12.445,4.24 -15.94,10.239 l -54.973,94.358 -61.025,-104.746 c -3.884,-6.668 -10.897,-10.364 -18.098,-10.351 -0.132,-0.008 -0.263,-0.02 -0.397,-0.02 H 94.3 c -0.134,0 -0.265,0.012 -0.397,0.02 -7.201,-0.014 -14.213,3.682 -18.098,10.351 L 2.841,249.949 c -5.804,9.961 -2.433,22.741 7.528,28.545 3.306,1.926 6.921,2.841 10.489,2.841 7.185,0 14.178,-3.714 18.056,-10.369 l 32.182,-55.239 v 23.65 L 56.693,343.162 c -1.213,8.742 5.578,16.541 14.404,16.541 v 0 63.527 c 0,11.944 9.288,22.117 21.224,22.542 12.532,0.446 22.833,-9.581 22.833,-22.014 v -64.056 h 17.404 v 63.527 c 0,11.945 9.288,22.118 21.226,22.542 12.532,0.445 22.83,-9.581 22.83,-22.014 v -64.056 0 c 8.826,0 15.617,-7.799 14.404,-16.541 L 176.614,239.373 v -22.89 l 31.74,54.481 c 1.08,1.852 8.574,14.946 13.673,17.917 3.306,1.925 6.921,2.841 10.489,2.841 7.185,0 14.178,-3.713 18.056,-10.369 l 31.275,-53.683 -0.301,184.769 c 0,12.166 9.861,22.028 22.027,22.028 0.051,0 0.1,-0.007 0.151,-0.008 0.051,0 0.1,0.008 0.152,0.008 12.166,0 22.029,-9.862 22.029,-22.028 l -0.302,-111.487 c 0,-4.635 3.497,-8.682 8.123,-8.981 5.068,-0.328 9.281,3.685 9.281,8.683 V 411.91 c 0,11.944 9.288,22.117 21.224,22.543 12.532,0.446 22.833,-9.581 22.833,-22.014 V 227.671 l 31.275,53.683 c 3.878,6.656 10.871,10.369 18.056,10.369 3.568,0 7.184,-0.916 10.489,-2.841 9.962,-5.804 13.332,-18.584 7.529,-28.544 z"
   id="path47"
   style="fill:#ffffff" />
	<path
   d="m 49.541,105.344 11.735,-1.046 c 6.748,-0.601 11.504,-6.909 10.183,-13.555 -2.014,-10.156 -2.71,-24.251 5.722,-32.967 -0.009,0.367 -0.028,0.731 -0.028,1.099 0,26.182 21.226,47.408 47.408,47.408 26.181,0 47.407,-21.226 47.407,-47.408 0,-0.368 -0.019,-0.732 -0.029,-1.099 8.433,8.717 7.736,22.811 5.721,32.967 -1.318,6.646 3.436,12.954 10.184,13.555 l 11.734,1.046 c 6.203,0.553 11.701,-3.961 12.365,-10.153 1.615,-15.035 1.334,-37.592 -7.169,-46.549 C 192.223,35.421 176.7,35.287 166.672,37.11 158.786,21.881 142.895,11.466 124.562,11.466 106.229,11.466 90.337,21.88 82.45,37.11 72.423,35.288 56.897,35.421 44.348,48.642 c -8.501,8.957 -8.782,31.515 -7.171,46.549 0.665,6.192 6.162,10.706 12.364,10.153 z"
   id="path49"
   style="fill:#ffffff" />
</g>
<g
   id="g53"
   transform="translate(4.6580611e-4,-11.466)">
</g>
<g
   id="g55"
   transform="translate(4.6580611e-4,-11.466)">
</g>
<g
   id="g57"
   transform="translate(4.6580611e-4,-11.466)">
</g>
<g
   id="g59"
   transform="translate(4.6580611e-4,-11.466)">
</g>
<g
   id="g61"
   transform="translate(4.6580611e-4,-11.466)">
</g>
<g
   id="g63"
   transform="translate(4.6580611e-4,-11.466)">
</g>
<g
   id="g65"
   transform="translate(4.6580611e-4,-11.466)">
</g>
<g
   id="g67"
   transform="translate(4.6580611e-4,-11.466)">
</g>
<g
   id="g69"
   transform="translate(4.6580611e-4,-11.466)">
</g>
<g
   id="g71"
   transform="translate(4.6580611e-4,-11.466)">
</g>
<g
   id="g73"
   transform="translate(4.6580611e-4,-11.466)">
</g>
<g
   id="g75"
   transform="translate(4.6580611e-4,-11.466)">
</g>
<g
   id="g77"
   transform="translate(4.6580611e-4,-11.466)">
</g>
<g
   id="g79"
   transform="translate(4.6580611e-4,-11.466)">
</g>
<g
   id="g81"
   transform="translate(4.6580611e-4,-11.466)">
</g>
<g
   id="g252"
   style="fill:#ffffff"
   transform="matrix(0.06998292,0,0,0.06998292,3.2598471e-5,-0.80242416)">
	<circle
   cx="333.60001"
   cy="69.264999"
   r="47.409"
   id="circle246"
   style="fill:#ffffff" />
	<path
   d="M 454.413,260.338 381.45,135.101 c -3.495,-5.999 -10.592,-10.239 -15.94,-10.239 -1.283,0 -60.824,0 -62.106,0 -5.348,0 -12.445,4.24 -15.94,10.239 l -54.973,94.358 -61.025,-104.746 c -3.884,-6.668 -10.897,-10.364 -18.098,-10.351 -0.132,-0.008 -0.263,-0.02 -0.397,-0.02 H 94.3 c -0.134,0 -0.265,0.012 -0.397,0.02 -7.201,-0.014 -14.213,3.682 -18.098,10.351 L 2.841,249.949 c -5.804,9.961 -2.433,22.741 7.528,28.545 3.306,1.926 6.921,2.841 10.489,2.841 7.185,0 14.178,-3.714 18.056,-10.369 l 32.182,-55.239 v 23.65 L 56.693,343.162 c -1.213,8.742 5.578,16.541 14.404,16.541 v 0 63.527 c 0,11.944 9.288,22.117 21.224,22.542 12.532,0.446 22.833,-9.581 22.833,-22.014 v -64.056 h 17.404 v 63.527 c 0,11.945 9.288,22.118 21.226,22.542 12.532,0.445 22.83,-9.581 22.83,-22.014 v -64.056 0 c 8.826,0 15.617,-7.799 14.404,-16.541 L 176.614,239.373 v -22.89 l 31.74,54.481 c 1.08,1.852 8.574,14.946 13.673,17.917 3.306,1.925 6.921,2.841 10.489,2.841 7.185,0 14.178,-3.713 18.056,-10.369 l 31.275,-53.683 -0.301,184.769 c 0,12.166 9.861,22.028 22.027,22.028 0.051,0 0.1,-0.007 0.151,-0.008 0.051,0 0.1,0.008 0.152,0.008 12.166,0 22.029,-9.862 22.029,-22.028 l -0.302,-111.487 c 0,-4.635 3.497,-8.682 8.123,-8.981 5.068,-0.328 9.281,3.685 9.281,8.683 V 411.91 c 0,11.944 9.288,22.117 21.224,22.543 12.532,0.446 22.833,-9.581 22.833,-22.014 V 227.671 l 31.275,53.683 c 3.878,6.656 10.871,10.369 18.056,10.369 3.568,0 7.184,-0.916 10.489,-2.841 9.962,-5.804 13.332,-18.584 7.529,-28.544 z"
   id="path248"
   style="fill:#ffffff" />
	<path
   d="m 49.541,105.344 11.735,-1.046 c 6.748,-0.601 11.504,-6.909 10.183,-13.555 -2.014,-10.156 -2.71,-24.251 5.722,-32.967 -0.009,0.367 -0.028,0.731 -0.028,1.099 0,26.182 21.226,47.408 47.408,47.408 26.181,0 47.407,-21.226 47.407,-47.408 0,-0.368 -0.019,-0.732 -0.029,-1.099 8.433,8.717 7.736,22.811 5.721,32.967 -1.318,6.646 3.436,12.954 10.184,13.555 l 11.734,1.046 c 6.203,0.553 11.701,-3.961 12.365,-10.153 1.615,-15.035 1.334,-37.592 -7.169,-46.549 C 192.223,35.421 176.7,35.287 166.672,37.11 158.786,21.881 142.895,11.466 124.562,11.466 106.229,11.466 90.337,21.88 82.45,37.11 72.423,35.288 56.897,35.421 44.348,48.642 c -8.501,8.957 -8.782,31.515 -7.171,46.549 0.665,6.192 6.162,10.706 12.364,10.153 z"
   id="path250"
   style="fill:#ffffff" />
</g><g
   id="g260"
   style="fill:#ffffff"
   transform="matrix(0.06998292,0,0,0.06998292,3.2598471e-5,-0.80242416)">
	<circle
   cx="333.60001"
   cy="69.264999"
   r="47.409"
   id="circle254"
   style="fill:#ffffff" />
	<path
   d="M 454.413,260.338 381.45,135.101 c -3.495,-5.999 -10.592,-10.239 -15.94,-10.239 -1.283,0 -60.824,0 -62.106,0 -5.348,0 -12.445,4.24 -15.94,10.239 l -54.973,94.358 -61.025,-104.746 c -3.884,-6.668 -10.897,-10.364 -18.098,-10.351 -0.132,-0.008 -0.263,-0.02 -0.397,-0.02 H 94.3 c -0.134,0 -0.265,0.012 -0.397,0.02 -7.201,-0.014 -14.213,3.682 -18.098,10.351 L 2.841,249.949 c -5.804,9.961 -2.433,22.741 7.528,28.545 3.306,1.926 6.921,2.841 10.489,2.841 7.185,0 14.178,-3.714 18.056,-10.369 l 32.182,-55.239 v 23.65 L 56.693,343.162 c -1.213,8.742 5.578,16.541 14.404,16.541 v 0 63.527 c 0,11.944 9.288,22.117 21.224,22.542 12.532,0.446 22.833,-9.581 22.833,-22.014 v -64.056 h 17.404 v 63.527 c 0,11.945 9.288,22.118 21.226,22.542 12.532,0.445 22.83,-9.581 22.83,-22.014 v -64.056 0 c 8.826,0 15.617,-7.799 14.404,-16.541 L 176.614,239.373 v -22.89 l 31.74,54.481 c 1.08,1.852 8.574,14.946 13.673,17.917 3.306,1.925 6.921,2.841 10.489,2.841 7.185,0 14.178,-3.713 18.056,-10.369 l 31.275,-53.683 -0.301,184.769 c 0,12.166 9.861,22.028 22.027,22.028 0.051,0 0.1,-0.007 0.151,-0.008 0.051,0 0.1,0.008 0.152,0.008 12.166,0 22.029,-9.862 22.029,-22.028 l -0.302,-111.487 c 0,-4.635 3.497,-8.682 8.123,-8.981 5.068,-0.328 9.281,3.685 9.281,8.683 V 411.91 c 0,11.944 9.288,22.117 21.224,22.543 12.532,0.446 22.833,-9.581 22.833,-22.014 V 227.671 l 31.275,53.683 c 3.878,6.656 10.871,10.369 18.056,10.369 3.568,0 7.184,-0.916 10.489,-2.841 9.962,-5.804 13.332,-18.584 7.529,-28.544 z"
   id="path256"
   style="fill:#ffffff" />
	<path
   d="m 49.541,105.344 11.735,-1.046 c 6.748,-0.601 11.504,-6.909 10.183,-13.555 -2.014,-10.156 -2.71,-24.251 5.722,-32.967 -0.009,0.367 -0.028,0.731 -0.028,1.099 0,26.182 21.226,47.408 47.408,47.408 26.181,0 47.407,-21.226 47.407,-47.408 0,-0.368 -0.019,-0.732 -0.029,-1.099 8.433,8.717 7.736,22.811 5.721,32.967 -1.318,6.646 3.436,12.954 10.184,13.555 l 11.734,1.046 c 6.203,0.553 11.701,-3.961 12.365,-10.153 1.615,-15.035 1.334,-37.592 -7.169,-46.549 C 192.223,35.421 176.7,35.287 166.672,37.11 158.786,21.881 142.895,11.466 124.562,11.466 106.229,11.466 90.337,21.88 82.45,37.11 72.423,35.288 56.897,35.421 44.348,48.642 c -8.501,8.957 -8.782,31.515 -7.171,46.549 0.665,6.192 6.162,10.706 12.364,10.153 z"
   id="path258"
   style="fill:#ffffff" />
</g></svg>
