<?xml version="1.0" encoding="UTF-8" standalone="no"?>
<svg
   id="Capa_1"
   enable-background="new 0 0 497.883 497.883"
   height="27.99983"
   viewBox="0 0 31.117687 27.227811"
   width="32"
   version="1.1"
   sodipodi:docname="recycle_2089548.svg"
   inkscape:version="1.2.2 (732a01da63, 2022-12-09)"
   xmlns:inkscape="http://www.inkscape.org/namespaces/inkscape"
   xmlns:sodipodi="http://sodipodi.sourceforge.net/DTD/sodipodi-0.dtd"
   xmlns="http://www.w3.org/2000/svg"
   xmlns:svg="http://www.w3.org/2000/svg">
  <defs
     id="defs18" />
  <sodipodi:namedview
     id="namedview16"
     pagecolor="#505050"
     bordercolor="#eeeeee"
     borderopacity="1"
     inkscape:showpageshadow="0"
     inkscape:pageopacity="0"
     inkscape:pagecheckerboard="0"
     inkscape:deskcolor="#505050"
     showgrid="false"
     inkscape:zoom="1.5703125"
     inkscape:cx="256"
     inkscape:cy="224.47761"
     inkscape:window-width="1920"
     inkscape:window-height="991"
     inkscape:window-x="1699"
     inkscape:window-y="-9"
     inkscape:window-maximized="1"
     inkscape:current-layer="Capa_1" />
  <path
     d="m 27.227937,7.779312 -3.889687,5.834563 h 1.944875 c 0,5.361625 -4.362625,9.72425 -9.72425,9.72425 -3.29925,0 -6.2105,-1.660063 -7.9694375,-4.180187 l -2.267625,3.401499 c 2.4974375,2.854251 6.1554375,4.668375 10.2370625,4.668375 7.506875,0 13.613937,-6.107124 13.613937,-13.613937 h 1.944875 z"
     id="path11"
     style="fill:#ffffff;stroke-width:0.0625" />
  <path
     d="m 5.8345625,13.613875 c 0,-5.361625 4.3626245,-9.72425 9.7242495,-9.72425 3.29925,0 6.2105,1.660062 7.969438,4.180187 L 25.795875,4.668375 C 23.298437,1.814125 19.640437,0 15.558812,0 8.0519375,0 1.944875,6.107125 1.944875,13.613937 H 0 L 3.8896875,19.4485 7.779375,13.613937 Z"
     id="path13"
     style="fill:#ffffff;stroke-width:0.0625" />
</svg>
