<svg id="Layer_1" enable-background="new 0 0 450 450" height="512" viewBox="0 0 450 450" width="512" xmlns="http://www.w3.org/2000/svg"><g><path d="m425.34 355.67h-400.68c-10.84 0-19.66-9.4-19.66-20.95v-219.45c0-11.55 8.82-20.94 19.66-20.94h400.69c10.84 0 19.66 9.39 19.66 20.94v219.46c-.01 11.54-8.83 20.94-19.67 20.94zm-400.68-251.34c-5.33 0-9.66 4.91-9.66 10.94v219.46c0 6.04 4.33 10.95 9.66 10.95h400.69c5.33 0 9.66-4.91 9.66-10.95v-219.46c0-6.03-4.33-10.94-9.66-10.94z"/><g><g><g><path d="m165.08 276h-128.31c-2.76 0-5-2.24-5-5s2.24-5 5-5h128.31c2.76 0 5 2.24 5 5s-2.24 5-5 5z"/></g><g><path d="m165.08 299.23h-128.31c-2.76 0-5-2.24-5-5s2.24-5 5-5h128.31c2.76 0 5 2.24 5 5s-2.24 5-5 5z"/></g><g><path d="m165.08 322.45h-128.31c-2.76 0-5-2.24-5-5s2.24-5 5-5h128.31c2.76 0 5 2.24 5 5s-2.24 5-5 5z"/></g></g><g><path d="m164.24 239.86h-126.63c-2.76 0-5-2.24-5-5v-105.87c0-2.76 2.24-5 5-5h126.63c2.76 0 5 2.24 5 5v105.88c0 2.76-2.24 4.99-5 4.99zm-121.63-10h116.63v-95.88h-116.63z"/><g><path d="m100.92 209.37c-18.66 0-33.84-15.18-33.84-33.84s15.18-33.84 33.84-33.84 33.84 15.18 33.84 33.84-15.18 33.84-33.84 33.84zm0-57.69c-13.15 0-23.84 10.7-23.84 23.84s10.7 23.84 23.84 23.84 23.84-10.7 23.84-23.84-10.69-23.84-23.84-23.84z"/><path d="m147.93 239.87c-2.44 0-4.57-1.79-4.94-4.27-2.16-14.6-20.51-26.13-41.77-26.23h-.59c-21.28.1-39.62 11.63-41.78 26.23-.4 2.73-2.95 4.61-5.68 4.21s-4.62-2.95-4.21-5.68c2.92-19.69 25.1-34.63 51.6-34.77h.63c26.58.13 48.77 15.08 51.69 34.77.4 2.73-1.48 5.27-4.21 5.68-.25.04-.49.06-.74.06z"/></g></g></g><g><g><g><path d="m413.23 239.86h-204.43c-2.76 0-5-2.24-5-5s2.24-5 5-5h204.44c2.76 0 5 2.24 5 5s-2.25 5-5.01 5z"/></g><g><path d="m413.23 209.37h-204.43c-2.76 0-5-2.24-5-5s2.24-5 5-5h204.44c2.76 0 5 2.24 5 5s-2.25 5-5.01 5z"/></g></g><path d="m413.23 180.35h-204.43c-2.76 0-5-2.24-5-5v-46.37c0-2.76 2.24-5 5-5h204.44c2.76 0 5 2.24 5 5v46.37c-.01 2.77-2.25 5-5.01 5zm-199.43-10h194.44v-36.37h-194.44z"/></g><g><path d="m242.2 303.6c-.81 2.14-1.53 4.28-2.16 6.39-.68-2.36-1.42-4.5-2.21-6.37l-15.49-43.3h-10.53l23.52 60.7h9.3l23.77-60.7h-10.05z"/><path d="m277.01 260.31h9.81v60.7h-9.81z"/><path d="m335.89 287.76c-3.09-1.13-7.14-2.25-12.02-3.32-5.33-1.2-8.96-2.4-10.79-3.57-1.64-1.05-2.44-2.63-2.44-4.82 0-2.5 1.07-4.35 3.27-5.67 2.34-1.39 5.46-2.1 9.26-2.1 4.18 0 7.41.88 9.59 2.61 2.17 1.72 3.37 4.25 3.67 7.73l.08.99 9.4-.76-.04-.96c-.25-5.91-2.51-10.55-6.7-13.78-4.12-3.18-9.62-4.79-16.33-4.79-6.56 0-11.84 1.63-15.7 4.84-3.9 3.26-5.89 7.43-5.89 12.42 0 4.42 1.58 8.06 4.7 10.84 3.03 2.69 7.98 4.8 14.73 6.26 6.49 1.4 11.15 2.83 13.86 4.25 2.47 1.29 3.67 3.3 3.67 6.12 0 2.74-1.17 4.85-3.58 6.45-2.5 1.67-5.86 2.52-9.99 2.52-4.42 0-8.24-1.03-11.34-3.06-3.04-1.99-4.67-5.1-5-9.51l-.07-1.01-9.33.81.04.95c.25 6.13 2.55 11.18 6.84 15.04 4.27 3.84 10.72 5.78 19.19 5.78 6.67 0 12.17-1.76 16.35-5.23 4.24-3.52 6.39-8.01 6.39-13.34 0-4.22-1.19-7.65-3.55-10.19-2.28-2.48-5.07-4.33-8.27-5.5z"/><path d="m385.46 260.31h-9.73l-23.31 60.7h10.36l6.49-17.86h23.12l6.89 17.86h10.94zm-4.91 10.94c.39 1.32.75 2.47 1.09 3.43.6 1.67 3.09 8.32 7.62 20.3h-17.05l6.06-16.23c.89-2.34 1.65-4.85 2.28-7.5z"/></g></g></svg>